<?xml version="1.0" encoding="UTF-8"?>
<svg height="27px" version="1.1" viewBox="0 0 18 27" width="18px" xmlns="http://www.w3.org/2000/svg"
>
  <title>figma</title>
  <g fill="none" fill-rule="evenodd" id="⚙️-Symbols" stroke="none" stroke-width="1">
    <g fill-rule="nonzero" id="29)-Table/Table-Hover" transform="translate(-31.000000, -253.000000)">
      <g id="Table-Hover" transform="translate(-1.000000, 0.000000)">
        <g id="Table-Row" transform="translate(1.000000, 238.000000)">
          <g id="figma" transform="translate(31.000000, 15.000000)">
            <path
              d="M4.5,27 C6.984,27 9,24.984 9,22.5 L9,18 L4.5,18 C2.016,18 0,20.016 0,22.5 C0,24.984 2.016,27 4.5,27 Z"
              fill="#0ACF83" id="path0_fill"></path>
            <path d="M0,13.5 C0,11.016 2.016,9 4.5,9 L9,9 L9,18 L4.5,18 C2.016,18 0,15.984 0,13.5 Z" fill="#A259FF"
                  id="path1_fill"></path>
            <path d="M0,4.5 C0,2.016 2.016,0 4.5,0 L9,0 L9,9 L4.5,9 C2.016,9 0,6.984 0,4.5 Z" fill="#F24E1E"
                  id="path1_fill_1_"></path>
            <path d="M9,0 L13.5,0 C15.984,0 18,2.016 18,4.5 C18,6.984 15.984,9 13.5,9 L9,9 L9,0 Z" fill="#FF7262"
                  id="path2_fill"></path>
            <path
              d="M18,13.5 C18,15.984 15.984,18 13.5,18 C11.016,18 9,15.984 9,13.5 C9,11.016 11.016,9 13.5,9 C15.984,9 18,11.016 18,13.5 Z"
              fill="#1ABCFE" id="path3_fill"></path>
          </g>
        </g>
      </g>
    </g>
  </g>
</svg>
